<svg width="168" height="94" viewBox="0 0 168 94" fill="none" xmlns="http://www.w3.org/2000/svg">
<rect width="168" height="94" rx="8" fill="#E3DF6A"/>
<path d="M124.5 0H160C164.418 0 168 3.58172 168 8V86C168 90.4183 164.418 94 160 94H91.5L124.5 0Z" fill="#ADA833"/>
<path d="M22.92 37.048V38.332H24.744V37.048H22.92ZM26.508 32.956V44.068H28.032V32.956H26.508ZM24.24 33.124V43.564H25.74V33.124H24.24ZM20.976 33.736C19.512 33.736 18.576 35.26 18.576 37.768C18.576 40.288 19.512 41.812 20.976 41.812C22.452 41.812 23.4 40.288 23.4 37.768C23.4 35.26 22.452 33.736 20.976 33.736ZM20.976 35.236C21.6 35.236 21.948 36.076 21.948 37.768C21.948 39.472 21.6 40.3 20.976 40.3C20.376 40.3 20.028 39.472 20.028 37.768C20.028 36.076 20.376 35.236 20.976 35.236ZM33.6471 33.592V34.396C33.6471 35.992 32.2671 37.756 29.7591 38.188L30.4431 39.508C33.3231 38.944 35.0391 36.808 35.0391 34.396V33.592H33.6471ZM33.9711 33.592V34.396C33.9711 36.844 35.6751 38.944 38.5551 39.508L39.2391 38.188C36.7191 37.756 35.3511 36.028 35.3511 34.396V33.592H33.9711ZM29.5311 41.416V42.712H39.5871V41.416H29.5311ZM40.8701 34.096V41.296H45.2621V34.096H40.8701ZM43.7741 35.344V40.048H42.3581V35.344H43.7741ZM48.5861 32.956V44.068H50.1101V32.956H48.5861ZM44.4581 36.988V38.272H46.9541V36.988H44.4581ZM46.3181 33.124V43.564H47.8181V33.124H46.3181ZM52.0292 40.264V41.56H52.9652C54.8732 41.56 56.3852 41.512 58.0652 41.248L57.9212 39.976C56.2652 40.24 54.8372 40.264 52.9652 40.264H52.0292ZM52.0292 33.88V40.684H53.6372V35.176H57.2492V33.88H52.0292ZM53.2532 36.964V38.212H57.0932V36.964H53.2532ZM58.7012 32.956V44.068H60.3092V32.956H58.7012ZM59.9492 37.168V38.488H61.9172V37.168H59.9492ZM70.6643 32.956V44.068H72.1883V32.956H70.6643ZM69.3323 37.192V38.476H71.1683V37.192H69.3323ZM68.2283 33.124V43.564H69.7283V33.124H68.2283ZM62.9482 34.096V41.296H67.3403V34.096H62.9482ZM65.8523 35.344V40.048H64.4363V35.344H65.8523ZM75.6913 33.748V35.008C75.6913 36.304 75.1153 37.696 73.6153 38.356L74.4313 39.532C76.2073 38.764 76.9033 36.916 76.9033 35.008V33.748H75.6913ZM76.0753 33.748V35.008C76.0753 36.892 76.7473 38.896 78.6913 39.7L79.3753 38.428C77.8273 37.732 77.2873 36.28 77.2873 35.008V33.748H76.0753ZM80.1073 33.748V35.008C80.1073 36.304 79.5553 37.744 78.0193 38.428L78.6913 39.7C80.6353 38.908 81.3073 36.916 81.3073 35.008V33.748H80.1073ZM80.5033 33.748V35.008C80.5033 36.964 81.1873 38.776 82.9633 39.532L83.7913 38.356C82.2793 37.708 81.7153 36.352 81.7153 35.008V33.748H80.5033ZM73.6753 41.404V42.7H83.7313V41.404H73.6753ZM26.112 48.956V54.932H27.72V48.956H26.112ZM20.328 55.412V59.948H27.72V55.412H26.136V56.444H21.9V55.412H20.328ZM21.9 57.668H26.136V58.676H21.9V57.668ZM21.672 49.412C19.944 49.412 18.648 50.504 18.648 52.04C18.648 53.576 19.944 54.668 21.672 54.668C23.4 54.668 24.684 53.576 24.684 52.04C24.684 50.504 23.4 49.412 21.672 49.412ZM21.672 50.732C22.512 50.732 23.124 51.224 23.124 52.04C23.124 52.868 22.512 53.348 21.672 53.348C20.82 53.348 20.208 52.868 20.208 52.04C20.208 51.224 20.82 50.732 21.672 50.732ZM35.5311 51.512V52.808H37.6431V51.512H35.5311ZM37.2231 48.956V55.376H38.8191V48.956H37.2231ZM31.4151 55.832V59.948H38.8191V55.832H31.4151ZM37.2591 57.08V58.688H32.9871V57.08H37.2591ZM32.0871 49.988V50.684C32.0871 52.088 31.2951 53.54 29.4591 54.14L30.2631 55.4C32.3991 54.704 33.3831 52.784 33.3831 50.684V49.988H32.0871ZM32.4231 49.988V50.684C32.4231 52.664 33.3711 54.512 35.4351 55.196L36.2151 53.936C34.4631 53.348 33.7071 51.98 33.7071 50.684V49.988H32.4231ZM29.8911 49.52V50.78H35.8671V49.52H29.8911Z" fill="#4F3B09"/>
</svg>
