<svg width="375" height="168" viewBox="0 0 375 168" fill="none" xmlns="http://www.w3.org/2000/svg">
<rect width="375" height="168" fill="#FCEF7E"/>
<path d="M32.484 90.088V95.704H33.48V90.088H32.484ZM26.472 96.256V97.036H32.508V98.116H26.496V100.348H27.468V98.86H33.492V96.256H26.472ZM26.496 100.024V100.816H33.852V100.024H26.496ZM27.42 90.4V91.228C27.42 92.8 26.304 94.24 24.672 94.816L25.164 95.608C27 94.936 28.248 93.232 28.248 91.228V90.4H27.42ZM27.6 90.4V91.228C27.6 93.172 28.848 94.768 30.672 95.392L31.164 94.612C29.556 94.084 28.416 92.728 28.416 91.228V90.4H27.6ZM41.3871 93.076V93.892H44.1231V93.076H41.3871ZM43.5591 90.1V98.044H44.5551V90.1H43.5591ZM37.6311 99.88V100.696H44.8551V99.88H37.6311ZM37.6311 97.348V100.3H38.6271V97.348H37.6311ZM38.3991 91.444V92.32C38.3991 93.856 37.2831 95.296 35.6631 95.872L36.1791 96.664C37.9911 95.992 39.2151 94.288 39.2151 92.32V91.444H38.3991ZM38.5911 91.444V92.308C38.5911 94.144 39.7551 95.776 41.5191 96.412L42.0231 95.632C40.4511 95.08 39.3951 93.712 39.3951 92.308V91.444H38.5911ZM35.9751 90.976V91.78H41.7711V90.976H35.9751ZM49.8539 98.728V99.556H59.6819V98.728H49.8539ZM54.2459 95.92V98.956H55.2419V95.92H54.2459ZM50.9939 90.988V96.1H58.4819V90.988H50.9939ZM57.5219 91.792V95.296H51.9659V91.792H57.5219ZM64.409 90.868C62.717 90.868 61.493 91.912 61.493 93.424C61.493 94.948 62.717 95.992 64.409 95.992C66.101 95.992 67.313 94.948 67.313 93.424C67.313 91.912 66.101 90.868 64.409 90.868ZM64.409 91.732C65.525 91.732 66.341 92.416 66.341 93.424C66.341 94.432 65.525 95.128 64.409 95.128C63.281 95.128 62.465 94.432 62.465 93.424C62.465 92.416 63.281 91.732 64.409 91.732ZM68.729 90.076V100.948H69.725V90.076H68.729ZM61.085 98.572C63.017 98.572 65.669 98.56 68.105 98.092L68.021 97.36C65.657 97.732 62.921 97.744 60.941 97.744L61.085 98.572ZM72.964 91.168V91.996H79.948V91.168H72.964ZM71.932 98.596V99.424H81.736V98.596H71.932ZM75.736 94.72V99.004H76.732V94.72H75.736ZM79.576 91.168V92.248C79.576 93.544 79.576 95.068 79.168 97.144L80.164 97.276C80.56 95.08 80.56 93.592 80.56 92.248V91.168H79.576ZM85.6231 91.024V92.968C85.6231 94.948 84.3871 97.036 82.8151 97.828L83.4271 98.62C85.1431 97.708 86.4391 95.368 86.4391 92.968V91.024H85.6231ZM85.8031 91.024V92.968C85.8031 95.296 87.0631 97.516 88.7431 98.416L89.3551 97.624C87.8191 96.856 86.6071 94.876 86.6071 92.968V91.024H85.8031ZM90.3031 90.088V100.936H91.3111V90.088H90.3031ZM91.0711 94.48V95.32H93.0871V94.48H91.0711ZM97.1739 95.632V96.448H107.002V95.632H97.1739ZM101.662 96.136V98.632H102.658V96.136H101.662ZM98.4339 90.592V94.408H105.73V90.592H98.4339ZM104.746 91.396V93.604H99.4059V91.396H104.746ZM98.4219 99.88V100.696H105.91V99.88H98.4219ZM98.4219 97.588V100.168H99.4059V97.588H98.4219ZM116.469 90.088V100.936H117.429V90.088H116.469ZM112.521 93.976V94.804H114.597V93.976H112.521ZM114.297 90.34V100.384H115.233V90.34H114.297ZM110.433 91.768V93.148C110.433 95.14 109.593 97.12 108.081 98.032L108.693 98.776C110.289 97.768 111.201 95.524 111.201 93.148V91.768H110.433ZM110.637 91.768V93.148C110.637 95.416 111.513 97.552 113.097 98.512L113.709 97.78C112.221 96.916 111.405 95.032 111.405 93.148V91.768H110.637ZM108.381 91.348V92.176H113.337V91.348H108.381ZM120.164 90.364V91.144H128.132V90.364H120.164ZM120.212 93.172V93.94H128.084V93.172H120.212ZM121.808 90.664V93.712H122.804V90.664H121.808ZM125.504 90.664V93.712H126.488V90.664H125.504ZM119.252 94.828V95.632H129.056V94.828H119.252ZM123.656 95.296V96.964H124.64V95.296H123.656ZM120.44 96.676V97.42H126.824V98.344H120.464V100.36H121.448V99.052H127.808V96.676H120.44ZM120.464 100.06V100.816H128.132V100.06H120.464ZM138.175 90.076V100.948H139.171V90.076H138.175ZM133.447 90.916C131.851 90.916 130.699 92.392 130.699 94.696C130.699 97.012 131.851 98.488 133.447 98.488C135.055 98.488 136.207 97.012 136.207 94.696C136.207 92.392 135.055 90.916 133.447 90.916ZM133.447 91.816C134.515 91.816 135.247 92.944 135.247 94.696C135.247 96.46 134.515 97.612 133.447 97.612C132.391 97.612 131.647 96.46 131.647 94.696C131.647 92.944 132.391 91.816 133.447 91.816ZM144.078 95.56V98.152H145.074V95.56H144.078ZM144.57 90.784C142.902 90.784 141.702 91.828 141.702 93.34C141.702 94.852 142.902 95.896 144.57 95.896C146.238 95.896 147.438 94.852 147.438 93.34C147.438 91.828 146.238 90.784 144.57 90.784ZM144.57 91.636C145.674 91.636 146.466 92.332 146.466 93.34C146.466 94.348 145.674 95.044 144.57 95.044C143.466 95.044 142.674 94.348 142.674 93.34C142.674 92.332 143.466 91.636 144.57 91.636ZM148.674 90.088V100.936H149.67V90.088H148.674ZM149.382 94.552V95.392H151.386V94.552H149.382ZM141.354 98.596C143.25 98.596 145.782 98.572 148.074 98.188L147.99 97.444C145.782 97.744 143.166 97.756 141.21 97.768L141.354 98.596ZM24.624 107.228V108.044H31.032V107.228H24.624ZM27.828 108.596C26.268 108.596 25.224 109.364 25.224 110.564C25.224 111.752 26.268 112.508 27.828 112.508C29.364 112.508 30.42 111.752 30.42 110.564C30.42 109.364 29.364 108.596 27.828 108.596ZM27.828 109.376C28.8 109.376 29.472 109.832 29.472 110.564C29.472 111.272 28.8 111.74 27.828 111.74C26.832 111.74 26.172 111.272 26.172 110.564C26.172 109.832 26.832 109.376 27.828 109.376ZM32.016 106.088V112.868H33.012V106.088H32.016ZM32.736 109.076V109.904H34.62V109.076H32.736ZM25.968 113.456V114.272H32.016V116.936H33.012V113.456H25.968ZM27.324 106.028V107.684H28.32V106.028H27.324ZM36.8751 112.592V116.792H44.1591V112.592H43.1631V113.852H37.8591V112.592H36.8751ZM37.8591 114.62H43.1631V115.988H37.8591V114.62ZM35.6271 111.032V111.836H45.4311V111.032H35.6271ZM40.0311 106.208V106.688C40.0311 108.056 38.1471 109.22 36.1911 109.484L36.5511 110.264C38.7831 109.928 40.8831 108.572 40.8831 106.688V106.208H40.0311ZM40.1871 106.208V106.688C40.1871 108.548 42.2991 109.928 44.5071 110.264L44.8791 109.484C42.9471 109.22 41.0391 108.032 41.0391 106.688V106.208H40.1871ZM52.4261 109.076V109.892H55.1621V109.076H52.4261ZM54.5981 106.1V114.044H55.5941V106.1H54.5981ZM48.6701 115.88V116.696H55.8941V115.88H48.6701ZM48.6701 113.348V116.3H49.6661V113.348H48.6701ZM49.4381 107.444V108.32C49.4381 109.856 48.3221 111.296 46.7021 111.872L47.2181 112.664C49.0301 111.992 50.2541 110.288 50.2541 108.32V107.444H49.4381ZM49.6301 107.444V108.308C49.6301 110.144 50.7941 111.776 52.5581 112.412L53.0621 111.632C51.4901 111.08 50.4341 109.712 50.4341 108.308V107.444H49.6301ZM47.0141 106.976V107.78H52.8101V106.976H47.0141ZM65.8292 107.816V108.644H67.7372V107.816H65.8292ZM65.8292 110.084V110.912H67.7372V110.084H65.8292ZM58.1852 111.284V112.112H59.0372C61.0412 112.112 62.4692 112.052 64.1852 111.752L64.1012 110.936C62.4092 111.224 61.0052 111.284 59.0372 111.284H58.1852ZM58.1612 106.724V107.54H62.0612V108.968H58.1852V111.692H59.1572V109.736H63.0452V106.724H58.1612ZM65.1332 106.1V112.688H66.1292V106.1H65.1332ZM59.0852 113.252V114.068H65.1332V116.936H66.1292V113.252H59.0852ZM77.488 109.544V110.36H80.032V109.544H77.488ZM76.492 106.952V107.312C76.492 109.508 75.304 111.236 72.208 112.244L72.604 113.048C76.084 111.872 77.512 109.784 77.512 106.952H76.492ZM72.7 106.952V107.768H77.08V106.952H72.7ZM76.48 109.016L72.16 109.22L72.328 110.036L76.48 109.724V109.016ZM79.852 106.088V114.152H80.848V106.088H79.852ZM74.044 115.88V116.696H81.172V115.88H74.044ZM74.044 113.348V116.348H75.04V113.348H74.044ZM88.5391 108.044V108.872H91.3111V108.044H88.5391ZM90.8911 106.088V111.68H91.8871V106.088H90.8911ZM84.9031 112.244V113.036H90.9031V114.092H84.9391V116.48H85.9111V114.836H91.8871V112.244H84.9031ZM84.9391 116V116.792H92.2951V116H84.9391ZM85.6711 106.424V107.444C85.6711 109.016 84.5911 110.372 82.9591 110.924L83.4751 111.716C85.2871 111.068 86.4871 109.448 86.4871 107.444V106.424H85.6711ZM85.8391 106.424V107.444C85.8391 109.28 87.0391 110.84 88.7911 111.464L89.3071 110.684C87.7351 110.168 86.6431 108.86 86.6431 107.444V106.424H85.8391ZM94.6342 111.236V112.04H95.5102C97.8742 112.04 99.1942 112.004 100.766 111.728L100.658 110.936C99.1342 111.188 97.8502 111.236 95.5102 111.236H94.6342ZM94.6342 106.88V111.644H95.6182V107.684H99.7942V106.88H94.6342ZM95.2942 109.028V109.82H99.4942V109.028H95.2942ZM101.894 106.1V112.808H102.902V106.1H101.894ZM99.3142 112.964C97.0462 112.964 95.6662 113.684 95.6662 114.932C95.6662 116.192 97.0462 116.912 99.3142 116.912C101.57 116.912 102.95 116.192 102.95 114.932C102.95 113.684 101.57 112.964 99.3142 112.964ZM99.3142 113.756C100.958 113.756 101.954 114.188 101.954 114.932C101.954 115.7 100.958 116.132 99.3142 116.132C97.6582 116.132 96.6622 115.7 96.6622 114.932C96.6622 114.188 97.6582 113.756 99.3142 113.756ZM116.165 111.636C116.165 112.568 115.994 113.369 115.653 114.04C115.313 114.707 114.845 115.222 114.251 115.582C113.661 115.94 112.989 116.119 112.236 116.119C111.48 116.119 110.805 115.94 110.212 115.582C109.621 115.222 109.155 114.706 108.814 114.036C108.473 113.365 108.303 112.565 108.303 111.636C108.303 110.705 108.473 109.905 108.814 109.237C109.155 108.567 109.621 108.053 110.212 107.695C110.805 107.334 111.48 107.153 112.236 107.153C112.989 107.153 113.661 107.334 114.251 107.695C114.845 108.053 115.313 108.567 115.653 109.237C115.994 109.905 116.165 110.705 116.165 111.636ZM114.861 111.636C114.861 110.926 114.746 110.328 114.516 109.842C114.288 109.354 113.976 108.984 113.578 108.734C113.183 108.482 112.736 108.355 112.236 108.355C111.733 108.355 111.284 108.482 110.889 108.734C110.494 108.984 110.182 109.354 109.952 109.842C109.724 110.328 109.611 110.926 109.611 111.636C109.611 112.347 109.724 112.946 109.952 113.435C110.182 113.92 110.494 114.29 110.889 114.543C111.284 114.793 111.733 114.918 112.236 114.918C112.736 114.918 113.183 114.793 113.578 114.543C113.976 114.29 114.288 113.92 114.516 113.435C114.746 112.946 114.861 112.347 114.861 111.636ZM117.806 116V107.273H120.917C121.596 107.273 122.159 107.396 122.605 107.643C123.051 107.891 123.385 108.229 123.606 108.658C123.828 109.084 123.939 109.564 123.939 110.098C123.939 110.635 123.826 111.118 123.602 111.547C123.38 111.973 123.045 112.311 122.596 112.561C122.15 112.808 121.589 112.932 120.913 112.932H118.774V111.815H120.794C121.223 111.815 121.571 111.741 121.838 111.594C122.105 111.443 122.301 111.239 122.426 110.98C122.551 110.722 122.613 110.428 122.613 110.098C122.613 109.768 122.551 109.476 122.426 109.22C122.301 108.964 122.103 108.764 121.833 108.619C121.566 108.474 121.214 108.402 120.777 108.402H119.123V116H117.806ZM125.482 116V107.273H130.954V108.406H126.799V111.065H130.668V112.195H126.799V114.866H131.005V116H125.482ZM139.757 107.273V116H138.547L134.11 109.599H134.029V116H132.713V107.273H133.931L138.372 113.682H138.453V107.273H139.757Z" fill="#1A1A1A"/>
<path d="M31.002 36.42V37.194C31.002 39.156 29.112 41.334 25.278 41.838L26.214 43.764C30.588 43.116 33.108 40.398 33.108 37.194V36.42H31.002ZM31.452 36.42V37.194C31.452 40.398 33.972 43.116 38.346 43.764L39.264 41.838C35.448 41.334 33.54 39.138 33.54 37.194V36.42H31.452ZM31.02 46.5V52.602H33.396V46.5H31.02ZM24.738 44.988V46.932H39.804V44.988H24.738ZM41.2786 37.392V39.282H51.0886V37.392H41.2786ZM46.1926 39.804C43.7806 39.804 42.0886 41.046 42.0886 42.882C42.0886 44.718 43.7806 45.942 46.1926 45.942C48.5866 45.942 50.2786 44.718 50.2786 42.882C50.2786 41.046 48.5866 39.804 46.1926 39.804ZM46.1926 41.604C47.2546 41.604 47.9926 42.036 47.9926 42.882C47.9926 43.71 47.2546 44.142 46.1926 44.142C45.1126 44.142 44.3926 43.71 44.3926 42.882C44.3926 42.036 45.1126 41.604 46.1926 41.604ZM52.0066 35.934V46.392H54.4006V35.934H52.0066ZM53.7346 40.236V42.18H56.6146V40.236H53.7346ZM43.2766 47.076V48.984H52.0066V52.602H54.4006V47.076H43.2766ZM44.9866 35.844V38.472H47.3806V35.844H44.9866ZM68.0396 37.9091V51H65.2718V40.5362H65.1951L62.1973 42.4155V39.9609L65.438 37.9091H68.0396ZM70.8278 43.548V45.492H85.9118V43.548H70.8278ZM72.6458 40.506V42.396H84.2018V40.506H72.6458ZM72.6458 36.384V41.442H75.0218V38.292H84.1118V36.384H72.6458ZM78.3158 46.482C74.7158 46.482 72.5198 47.58 72.5198 49.542C72.5198 51.504 74.7158 52.602 78.3158 52.602C81.9158 52.602 84.0938 51.504 84.0938 49.542C84.0938 47.58 81.9158 46.482 78.3158 46.482ZM78.3158 48.282C80.5478 48.282 81.6818 48.696 81.6818 49.542C81.6818 50.406 80.5478 50.784 78.3158 50.784C76.0838 50.784 74.9498 50.406 74.9498 49.542C74.9498 48.696 76.0838 48.282 78.3158 48.282ZM89.1684 45.42V52.422H100.652V45.42H98.2764V47.166H91.5264V45.42H89.1684ZM91.5264 49.002H98.2764V50.514H91.5264V49.002ZM89.2224 36.6V38.508H99.7884V36.6H89.2224ZM87.3864 42.432V44.358H102.47V42.432H87.3864ZM98.3484 36.6V37.932C98.3484 39.336 98.3484 40.866 97.8264 43.008L100.238 42.846C100.706 40.758 100.706 39.318 100.706 37.932V36.6H98.3484ZM108.111 48.714V50.676H123.195V48.714H108.111ZM109.263 37.374V39.282H121.953V37.374H109.263ZM109.335 44.268V46.194H121.899V44.268H109.335ZM111.531 39.138V44.448H113.925V39.138H111.531ZM117.309 39.138V44.448H119.685V39.138H117.309ZM124.67 48.822V50.766H139.754V48.822H124.67ZM130.988 45.672V49.614H133.382V45.672H130.988ZM126.362 37.014V38.904H135.686V40.686H126.398V45.366H128.774V42.558H138.062V37.014H126.362ZM126.398 44.412V46.338H138.44V44.412H126.398ZM148.104 40.056V41.982H150.714V40.056H148.104ZM149.886 36.258V46.014H152.118V36.258H149.886ZM144.144 38.436V39.498C144.144 41.352 143.226 43.242 140.994 44.124L142.2 45.978C144.9 44.898 145.998 42.288 145.998 39.498V38.436H144.144ZM144.594 38.436V39.498C144.594 42.18 145.62 44.664 148.23 45.672L149.4 43.836C147.312 43.008 146.448 41.28 146.448 39.498V38.436H144.594ZM141.516 37.122V39.03H148.878V37.122H141.516ZM153.144 35.934V46.086H155.412V35.934H153.144ZM143.964 46.698V48.606H153.036V52.602H155.412V46.698H143.964ZM159.551 44.52V46.392H171.269V44.52H159.551ZM157.787 48.75V50.694H172.871V48.75H157.787ZM159.551 37.14V45.042H161.981V39.066H171.125V37.14H159.551ZM161.243 40.812V42.666H170.747V40.812H161.243ZM31.344 63.12V65.064H33.99V63.12H31.344ZM36.654 59.952V69.654H38.922V59.952H36.654ZM33.324 60.24V69.51H35.574V60.24H33.324ZM27.636 70.338V76.422H38.922V70.338H27.636ZM36.582 72.21V74.532H29.994V72.21H36.582ZM27.654 60.852V62.688C27.654 64.56 26.736 66.558 24.486 67.584L25.746 69.42C28.41 68.268 29.526 65.496 29.526 62.688V60.852H27.654ZM28.14 60.852V62.688C28.14 65.442 29.112 67.998 31.578 69.096L32.856 67.278C30.804 66.342 29.976 64.542 29.976 62.688V60.852H28.14ZM47.5606 60.42V61.194C47.5606 63.156 45.6706 65.334 41.8366 65.838L42.7726 67.764C47.1466 67.116 49.6666 64.398 49.6666 61.194V60.42H47.5606ZM48.0106 60.42V61.194C48.0106 64.398 50.5306 67.116 54.9046 67.764L55.8226 65.838C52.0066 65.334 50.0986 63.138 50.0986 61.194V60.42H48.0106ZM47.5786 70.5V76.602H49.9546V70.5H47.5786ZM41.2966 68.988V70.932H56.3626V68.988H41.2966ZM57.8372 61.392V63.282H67.6472V61.392H57.8372ZM62.7512 63.804C60.3392 63.804 58.6472 65.046 58.6472 66.882C58.6472 68.718 60.3392 69.942 62.7512 69.942C65.1452 69.942 66.8372 68.718 66.8372 66.882C66.8372 65.046 65.1452 63.804 62.7512 63.804ZM62.7512 65.604C63.8132 65.604 64.5512 66.036 64.5512 66.882C64.5512 67.71 63.8132 68.142 62.7512 68.142C61.6712 68.142 60.9512 67.71 60.9512 66.882C60.9512 66.036 61.6712 65.604 62.7512 65.604ZM68.5652 59.934V70.392H70.9592V59.934H68.5652ZM70.2932 64.236V66.18H73.1732V64.236H70.2932ZM59.8352 71.076V72.984H68.5652V76.602H70.9592V71.076H59.8352ZM61.5452 59.844V62.472H63.9392V59.844H61.5452ZM90.0098 59.934V68.898H92.4218V59.934H90.0098ZM81.3338 69.618V76.422H92.4218V69.618H90.0458V71.166H83.6918V69.618H81.3338ZM83.6918 73.002H90.0458V74.514H83.6918V73.002ZM83.3498 60.618C80.7578 60.618 78.8138 62.256 78.8138 64.56C78.8138 66.864 80.7578 68.502 83.3498 68.502C85.9418 68.502 87.8678 66.864 87.8678 64.56C87.8678 62.256 85.9418 60.618 83.3498 60.618ZM83.3498 62.598C84.6098 62.598 85.5278 63.336 85.5278 64.56C85.5278 65.802 84.6098 66.522 83.3498 66.522C82.0718 66.522 81.1538 65.802 81.1538 64.56C81.1538 63.336 82.0718 62.598 83.3498 62.598ZM104.138 63.768V65.712H107.306V63.768H104.138ZM106.676 59.934V69.564H109.07V59.934H106.676ZM97.9644 70.248V76.422H109.07V70.248H97.9644ZM106.73 72.12V74.532H100.322V72.12H106.73ZM98.9724 61.482V62.526C98.9724 64.632 97.7844 66.81 95.0304 67.71L96.2364 69.6C99.4404 68.556 100.916 65.676 100.916 62.526V61.482H98.9724ZM99.4764 61.482V62.526C99.4764 65.496 100.898 68.268 103.994 69.294L105.164 67.404C102.536 66.522 101.402 64.47 101.402 62.526V61.482H99.4764ZM95.6784 60.78V62.67H104.642V60.78H95.6784ZM115.299 61.9091L115.05 71.0753H112.71L112.455 61.9091H115.299ZM113.88 75.1662C113.458 75.1662 113.096 75.017 112.794 74.7188C112.491 74.4162 112.342 74.054 112.346 73.6321C112.342 73.2145 112.491 72.8565 112.794 72.5582C113.096 72.2599 113.458 72.1108 113.88 72.1108C114.285 72.1108 114.641 72.2599 114.948 72.5582C115.254 72.8565 115.41 73.2145 115.414 73.6321C115.41 73.9134 115.335 74.1712 115.191 74.4055C115.05 74.6357 114.865 74.821 114.634 74.9616C114.404 75.098 114.153 75.1662 113.88 75.1662Z" fill="#1A1A1A"/>
<path d="M240.91 98.8933V96.1904C240.466 96.0435 223.538 95.973 221.987 96.1199C221.969 96.302 221.937 96.4989 221.937 96.6957C221.928 99.24 221.928 101.784 221.916 104.328C221.916 104.878 221.857 105.433 221.267 105.703C221.085 105.789 220.87 105.836 220.67 105.836C217.962 105.842 215.25 105.815 212.541 105.847C211.774 105.856 211.237 105.333 211.251 104.537C211.287 102.704 211.254 100.868 211.251 99.0314C211.251 96.3197 211.251 93.6109 211.251 90.8992C211.251 90.7111 211.26 90.5231 211.272 90.338C211.316 89.6182 211.73 89.1922 212.447 89.1452C212.717 89.1276 212.988 89.1393 213.261 89.1393C225.392 89.1393 237.522 89.1393 249.653 89.1393C249.862 89.1393 250.07 89.1335 250.279 89.1452C251.031 89.1922 251.422 89.5507 251.525 90.2939C251.554 90.5202 251.545 90.7523 251.545 90.9814C251.545 95.2767 251.551 99.572 251.545 103.867C251.545 104.22 251.507 104.575 251.439 104.919C251.322 105.515 251.025 105.765 250.42 105.821C250.235 105.839 250.044 105.833 249.859 105.833C241.586 105.833 233.309 105.833 225.036 105.833C224.786 105.833 224.537 105.809 224.287 105.824C223.811 105.85 223.285 105.357 223.294 104.831C223.303 104.017 223.273 103.206 223.27 102.392C223.265 101.64 223.265 100.891 223.273 100.139C223.285 99.2605 223.641 98.9168 224.534 98.8962C224.722 98.8933 224.91 98.8962 225.098 98.8962C230.142 98.8962 235.187 98.8962 240.231 98.8962C240.437 98.8962 240.642 98.8962 240.922 98.8962L240.91 98.8933Z" fill="#0C4183"/>
<path d="M224.974 74.1937C226.197 74.6374 227.319 75.0428 228.553 75.4894C228.553 75.128 228.553 74.8665 228.553 74.6021C228.553 73.1008 228.547 71.5995 228.553 70.0982C228.553 69.2374 228.873 68.8731 229.728 68.8379C230.58 68.8026 231.438 68.8202 232.29 68.8114C232.513 68.8114 232.736 68.7909 233.013 68.7762C233.024 68.5059 233.045 68.2826 233.045 68.0593C233.048 66.7255 233.045 65.3887 233.048 64.0549C233.048 63.8257 233.042 63.5878 233.101 63.3733C233.251 62.8239 233.729 62.5184 234.458 62.4949C234.978 62.4772 235.501 62.489 236.021 62.4919C237.252 62.4919 238.48 62.4802 239.711 62.5037C240.011 62.5095 240.322 62.5977 240.607 62.7093C240.913 62.8298 241.095 63.0912 241.121 63.432C241.145 63.7229 241.177 64.0138 241.177 64.3046C241.183 71.4174 241.183 78.5272 241.183 85.6399C241.183 85.8691 241.183 86.1012 241.142 86.3245C241.042 86.8944 240.701 87.2 240.119 87.2206C239.514 87.2411 238.912 87.2323 238.307 87.2323C236.973 87.2323 235.639 87.2411 234.305 87.2264C233.447 87.2176 233.06 86.8181 233.057 85.9455C233.051 83.5041 233.057 81.0656 233.057 78.6241C233.057 77.9543 233.03 77.9308 232.349 77.919C231.618 77.9053 231.254 78.2735 231.256 79.0237C231.256 80.9627 231.262 82.9018 231.253 84.8408C231.253 85.2345 231.212 85.6311 231.153 86.0219C231.074 86.5595 230.603 86.9033 230.072 86.8004C229.749 86.7358 229.437 86.6124 229.129 86.4949C227.195 85.7545 225.262 85.0054 223.329 84.2679C223.182 84.2121 223.015 84.2062 222.836 84.1769C222.73 84.5793 222.63 84.9348 222.539 85.2933C222.368 85.9631 221.925 86.4009 221.261 86.4743C220.453 86.5595 219.642 86.6418 218.831 86.6535C216.331 86.6829 213.828 86.6624 211.328 86.6947C210.687 86.7035 210.041 86.2393 210.008 85.4901C209.997 85.2404 210.003 84.9907 210.003 84.7409C210.003 82.7608 209.997 80.7777 210.003 78.7975C210.003 77.8779 210.167 77.7193 211.096 77.6811C212.115 77.6399 213.137 77.6047 214.157 77.5665C214.301 77.5606 214.445 77.543 214.639 77.5253C214.712 77.2727 214.818 77.02 214.856 76.7586C215.059 75.4453 215.235 74.1291 215.441 72.8188C215.679 71.3028 215.934 69.7868 216.19 68.2738C216.428 66.8606 216.666 65.4504 216.919 64.0402C216.966 63.7787 217.036 63.5055 217.168 63.2763C217.418 62.8445 217.823 62.6829 218.326 62.6858C220.641 62.6976 222.953 62.6887 225.268 62.6887C225.559 62.6887 225.853 62.6682 226.144 62.6976C226.728 62.7563 227.06 63.1089 227.031 63.6906C227.01 64.146 226.922 64.5984 226.831 65.045C226.467 66.8342 226.091 68.6234 225.712 70.4097C225.497 71.4232 225.262 72.4339 225.051 73.4504C225.001 73.6884 225.004 73.9352 224.98 74.1908L224.974 74.1937Z" fill="#0C4183"/>
<path d="M275.745 81.9563C275.255 82.7201 274.764 83.4605 274.3 84.2185C273.759 85.1057 273.004 85.5699 271.946 85.5641C268.509 85.5494 265.069 85.5552 261.631 85.5523C260.256 85.5523 258.881 85.5552 257.503 85.5406C257.242 85.5376 256.981 85.4495 256.722 85.3995C256.146 85.285 255.952 84.8854 255.949 84.3536C255.943 81.7066 255.938 79.0565 255.946 76.4094C255.946 75.7719 256.305 75.3459 256.922 75.2196C257.266 75.1491 257.621 75.1021 257.974 75.0991C260.682 75.0844 263.391 75.0727 266.103 75.0874C266.555 75.0874 266.811 74.9463 267.052 74.5644C268.747 71.8791 270.46 69.2056 272.176 66.5321C272.825 65.5185 273.489 64.5167 274.162 63.5178C274.635 62.8156 275.293 62.466 276.156 62.4689C279.429 62.4748 282.699 62.4601 285.972 62.463C286.213 62.463 286.475 62.5042 286.686 62.607C287.285 62.9037 287.435 63.3415 287.141 63.9438C286.924 64.3903 286.665 64.8193 286.398 65.2394C284.914 67.5692 283.419 69.8931 281.932 72.2229C281.838 72.3727 281.791 72.5519 281.706 72.7517C282.761 72.9603 283.757 73.1542 284.75 73.3481C285.91 73.5743 287.068 73.8006 288.228 74.0209C289.715 74.3059 291.202 74.582 292.688 74.8758C293.602 75.0551 294.516 75.249 295.423 75.4576C295.993 75.5898 296.402 75.9071 296.481 76.5358C296.528 76.9265 296.619 77.3173 296.622 77.708C296.637 79.8968 296.634 82.0855 296.622 84.2772C296.622 84.5417 296.581 84.8178 296.508 85.0705C296.367 85.5611 296.149 85.708 295.641 85.6669C295.268 85.6375 294.895 85.5817 294.527 85.5141C293.285 85.282 292.042 85.0411 290.799 84.7943C289.944 84.6239 289.095 84.43 288.24 84.2655C287.162 84.0598 286.078 83.8777 284.997 83.675C284.101 83.5075 283.208 83.3195 282.311 83.1491C281.251 82.9464 280.187 82.7583 279.13 82.5556C278.192 82.3764 277.261 82.1884 276.324 82.0092C276.145 81.9739 275.957 81.971 275.745 81.9533V81.9563Z" fill="#0C4183"/>
<path d="M270.847 97.3007C270.486 97.3007 270.198 97.3007 269.913 97.3007C265.744 97.3007 261.578 97.3007 257.409 97.3007C257.18 97.3007 256.948 97.3066 256.725 97.2713C256.008 97.1656 255.632 96.8541 255.605 96.0109C255.544 94.0308 255.576 92.0506 255.594 90.0704C255.594 89.7884 255.673 89.474 255.814 89.2331C255.937 89.0216 256.178 88.8306 256.41 88.7483C256.695 88.6455 257.022 88.6308 257.33 88.6308C270.001 88.625 282.673 88.6279 295.341 88.6308C295.588 88.6308 295.841 88.6485 296.076 88.7131C296.534 88.8424 296.828 89.1332 296.839 89.6474C296.845 90.0234 296.878 90.3965 296.881 90.7697C296.883 92.3738 296.881 93.9808 296.881 95.5849C296.881 95.8347 296.866 96.0844 296.836 96.3341C296.775 96.86 296.557 97.1127 296.031 97.2243C295.791 97.2772 295.535 97.2919 295.288 97.2919C290.89 97.2948 286.495 97.2919 282.097 97.2948C281.915 97.2948 281.733 97.3183 281.492 97.336C281.477 97.6004 281.456 97.8207 281.456 98.0411C281.453 100.106 281.418 102.169 281.465 104.234C281.497 105.691 281.045 106.029 279.741 106.006C277.282 105.959 274.822 105.968 272.363 106.006C271.103 106.023 270.856 105.351 270.853 104.493C270.847 102.325 270.853 100.156 270.853 97.9882C270.853 97.8031 270.853 97.618 270.853 97.3036L270.847 97.3007Z" fill="#0C4183"/>
<path d="M329.712 99.9949C329.357 99.9949 329.113 99.9949 328.866 99.9949C320.323 99.9949 311.779 99.9949 303.235 99.9949C303.068 99.9949 302.903 99.9949 302.736 99.9949C301.89 99.9861 301.523 99.6541 301.446 98.808C301.426 98.5788 301.434 98.3496 301.434 98.1205C301.434 96.6603 301.434 95.2031 301.434 93.743C301.434 93.5961 301.432 93.4492 301.452 93.3052C301.567 92.5502 301.987 92.1741 302.76 92.1477C303.218 92.13 303.676 92.1418 304.134 92.1418C315.657 92.1418 327.18 92.1418 338.702 92.1506C339.002 92.1506 339.307 92.2299 339.598 92.3122C340.112 92.4561 340.295 92.8586 340.333 93.3493C340.342 93.4727 340.339 93.599 340.339 93.7253C340.339 97.3331 340.339 100.938 340.336 104.546C340.336 105.524 339.924 105.953 338.934 105.959C336.328 105.971 333.725 105.965 331.119 105.959C330.085 105.959 329.7 105.404 329.703 104.537C329.703 103.306 329.706 102.078 329.709 100.847C329.709 100.6 329.709 100.353 329.709 99.9978L329.712 99.9949Z" fill="#0C4183"/>
<path d="M316.882 79.7173C316.6 79.7026 316.397 79.6791 316.192 79.6791C314.94 79.6761 313.691 79.6791 312.44 79.6791C312.272 79.6791 312.105 79.6849 311.94 79.7084C311.365 79.7819 310.997 80.1403 310.924 80.7162C310.897 80.9218 310.906 81.1333 310.906 81.3419C310.906 83.5718 310.909 85.8047 310.897 88.0346C310.897 88.2931 310.833 88.5634 310.745 88.8102C310.58 89.2744 310.225 89.4712 309.728 89.4771C308.497 89.4947 307.287 89.4007 306.076 89.1275C304.916 88.8631 303.87 88.4224 303 87.6027C302.254 86.9005 301.799 86.028 301.561 85.0379C301.114 83.1899 301.226 81.3155 301.305 79.444C301.343 78.5215 301.534 77.6401 301.91 76.7911C302.542 75.3662 303.661 74.4848 305.086 73.9853C306.326 73.5505 307.619 73.3566 308.941 73.3596C312.463 73.3684 315.986 73.3155 319.506 73.4007C321.098 73.4389 322.687 73.7444 324.056 74.6875C324.952 75.3045 325.616 76.0977 325.987 77.1348C326.313 78.0456 326.483 78.974 326.468 79.9435C326.451 81.1098 326.492 82.2791 326.451 83.4455C326.41 84.6236 326.11 85.7488 325.458 86.7448C324.615 88.0316 323.357 88.7162 321.903 89.0893C320.584 89.4301 319.238 89.4947 317.881 89.48C316.444 89.4653 315.005 89.48 313.568 89.48C312.669 89.48 312.237 89.0452 312.234 88.1403C312.231 86.9299 312.246 85.7224 312.231 84.512C312.219 83.5865 312.716 83.2164 313.515 83.1605C314.158 83.1165 314.808 83.1429 315.451 83.1341C316.383 83.1223 316.767 82.8344 316.864 81.9207C316.938 81.2244 316.879 80.5134 316.879 79.7202L316.882 79.7173Z" fill="#0C4183"/>
<path d="M340.347 72.0701C340.738 72.0701 341.047 72.0701 341.355 72.0701C342.169 72.0701 342.983 72.0613 343.794 72.0701C344.478 72.076 344.781 72.3287 344.907 72.9985C344.963 73.2835 344.992 73.5773 344.995 73.8682C345.004 75.6838 345.001 77.4965 344.995 79.3122C344.995 79.5825 344.966 79.8527 344.936 80.1201C344.875 80.7224 344.622 81.1572 343.658 81.1983C342.806 81.2336 341.949 81.2042 341.094 81.2101C340.87 81.2101 340.647 81.2277 340.342 81.2424C340.342 81.5068 340.342 81.7271 340.342 81.9504C340.342 84.245 340.342 86.5395 340.342 88.834C340.342 89.0632 340.344 89.2953 340.303 89.5186C340.192 90.1062 339.816 90.4146 339.222 90.447C339.075 90.4558 338.931 90.447 338.784 90.447C336.346 90.447 333.907 90.4499 331.466 90.4499C331.237 90.4499 331.008 90.4499 330.779 90.4323C330.306 90.4029 330.012 90.1238 329.874 89.7007C329.791 89.4481 329.759 89.169 329.759 88.9045C329.753 80.5814 329.753 72.2611 329.759 63.9379C329.759 63.7323 329.788 63.5207 329.838 63.3239C329.979 62.7716 330.341 62.466 330.905 62.4631C333.678 62.4543 336.449 62.4513 339.222 62.4631C339.833 62.4631 340.265 62.8949 340.336 63.509C340.356 63.6941 340.347 63.885 340.347 64.0701C340.347 66.4675 340.347 68.8678 340.35 71.2651C340.35 71.4914 340.35 71.7205 340.35 72.0643L340.347 72.0701Z" fill="#0C4183"/>
<path d="M319.165 64.725C319.958 64.725 320.625 64.725 321.292 64.725C322.752 64.725 324.209 64.7162 325.67 64.7279C325.928 64.7279 326.192 64.8072 326.442 64.8866C326.707 64.9688 326.83 65.1774 326.848 65.4595C326.871 65.8532 326.924 66.2468 326.93 66.6435C326.945 67.5601 326.939 68.4797 326.942 69.3963C326.942 69.6049 326.942 69.8135 326.933 70.0221C326.889 71.3412 326.642 71.5909 325.332 71.5939C322.914 71.5998 320.496 71.5939 318.078 71.5939C312.866 71.5939 307.657 71.5939 302.445 71.5939C302.178 71.5939 301.905 71.5704 301.643 71.5146C301.011 71.3794 300.862 71.1884 300.82 70.5392C300.818 70.4775 300.82 70.4128 300.82 70.3511C300.82 68.891 300.812 67.4308 300.815 65.9707C300.815 65.3126 301.044 64.913 301.517 64.772C301.731 64.7074 301.969 64.7162 302.198 64.7162C304.052 64.7132 305.909 64.7162 307.763 64.7162C307.889 64.7162 308.013 64.7103 308.139 64.7162C308.456 64.7367 308.6 64.581 308.597 64.2725C308.597 63.8142 308.594 63.3559 308.603 62.8976C308.609 62.6067 308.624 62.3129 308.662 62.025C308.735 61.4609 308.944 61.2259 309.511 61.1054C309.813 61.0408 310.131 61.0202 310.439 61.0173C312.775 61.0055 315.108 61.0055 317.443 61.0026C317.526 61.0026 317.611 60.9967 317.693 61.0026C318.783 61.0849 319.156 61.4874 319.162 62.5891C319.162 63.2707 319.162 63.9523 319.162 64.7191L319.165 64.725Z" fill="#0C4183"/>
<path d="M243.328 74.9725C243.328 71.4088 243.328 67.8451 243.328 64.2813C243.328 63.9699 243.348 63.6555 243.39 63.3471C243.457 62.8535 243.748 62.5656 244.23 62.4833C244.333 62.4657 244.438 62.4627 244.541 62.4627C246.477 62.4627 248.416 62.451 250.352 62.4627C251.066 62.4686 251.287 62.6743 251.457 63.3911C251.51 63.6115 251.542 63.8406 251.542 64.0669C251.548 71.2795 251.548 78.4892 251.542 85.7019C251.542 85.9898 251.498 86.2836 251.437 86.5656C251.307 87.162 251.014 87.4176 250.4 87.4264C249.086 87.4441 247.776 87.4382 246.463 87.4382C245.816 87.4382 245.17 87.447 244.527 87.4382C243.719 87.4235 243.346 86.971 243.343 86.2894C243.343 86.0397 243.331 85.79 243.331 85.5403C243.331 82.0177 243.331 78.4951 243.331 74.9725H243.328Z" fill="#0C4183"/>
</svg>
