<svg width="168" height="94" viewBox="0 0 168 94" fill="none" xmlns="http://www.w3.org/2000/svg">
<rect width="168" height="94" rx="8" fill="#C72586"/>
<path d="M124.5 0H160C164.418 0 168 3.58172 168 8V86C168 90.4183 164.418 94 160 94H91.5L124.5 0Z" fill="#96346E"/>
<path d="M22.896 35.08V36.376H24.66V35.08H22.896ZM26.436 32.968V39.436H27.948V32.968H26.436ZM24.216 33.16V39.34H25.716V33.16H24.216ZM20.424 39.892V43.948H27.948V39.892H20.424ZM26.388 41.14V42.688H21.996V41.14H26.388ZM20.436 33.568V34.792C20.436 36.04 19.824 37.372 18.324 38.056L19.164 39.28C20.94 38.512 21.684 36.664 21.684 34.792V33.568H20.436ZM20.76 33.568V34.792C20.76 36.628 21.408 38.332 23.052 39.064L23.904 37.852C22.536 37.228 21.984 36.028 21.984 34.792V33.568H20.76ZM33.7071 33.28V33.796C33.7071 35.104 32.4471 36.556 29.8911 36.892L30.5151 38.176C33.4311 37.744 35.1111 35.932 35.1111 33.796V33.28H33.7071ZM34.0071 33.28V33.796C34.0071 35.932 35.6871 37.744 38.6031 38.176L39.2151 36.892C36.6711 36.556 35.3991 35.092 35.3991 33.796V33.28H34.0071ZM33.7191 40V44.068H35.3031V40H33.7191ZM29.5311 38.992V40.288H39.5751V38.992H29.5311ZM40.5581 33.928V35.188H47.0981V33.928H40.5581ZM43.8341 35.536C42.2261 35.536 41.0981 36.364 41.0981 37.588C41.0981 38.812 42.2261 39.628 43.8341 39.628C45.4301 39.628 46.5581 38.812 46.5581 37.588C46.5581 36.364 45.4301 35.536 43.8341 35.536ZM43.8341 36.736C44.5421 36.736 45.0341 37.024 45.0341 37.588C45.0341 38.14 44.5421 38.428 43.8341 38.428C43.1141 38.428 42.6341 38.14 42.6341 37.588C42.6341 37.024 43.1141 36.736 43.8341 36.736ZM47.7101 32.956V39.928H49.3061V32.956H47.7101ZM48.8621 35.824V37.12H50.7821V35.824H48.8621ZM41.8901 40.384V41.656H47.7101V44.068H49.3061V40.384H41.8901ZM43.0301 32.896V34.648H44.6261V32.896H43.0301ZM26.112 48.956V54.932H27.72V48.956H26.112ZM20.328 55.412V59.948H27.72V55.412H26.136V56.444H21.9V55.412H20.328ZM21.9 57.668H26.136V58.676H21.9V57.668ZM21.672 49.412C19.944 49.412 18.648 50.504 18.648 52.04C18.648 53.576 19.944 54.668 21.672 54.668C23.4 54.668 24.684 53.576 24.684 52.04C24.684 50.504 23.4 49.412 21.672 49.412ZM21.672 50.732C22.512 50.732 23.124 51.224 23.124 52.04C23.124 52.868 22.512 53.348 21.672 53.348C20.82 53.348 20.208 52.868 20.208 52.04C20.208 51.224 20.82 50.732 21.672 50.732ZM35.5311 51.512V52.808H37.6431V51.512H35.5311ZM37.2231 48.956V55.376H38.8191V48.956H37.2231ZM31.4151 55.832V59.948H38.8191V55.832H31.4151ZM37.2591 57.08V58.688H32.9871V57.08H37.2591ZM32.0871 49.988V50.684C32.0871 52.088 31.2951 53.54 29.4591 54.14L30.2631 55.4C32.3991 54.704 33.3831 52.784 33.3831 50.684V49.988H32.0871ZM32.4231 49.988V50.684C32.4231 52.664 33.3711 54.512 35.4351 55.196L36.2151 53.936C34.4631 53.348 33.7071 51.98 33.7071 50.684V49.988H32.4231ZM29.8911 49.52V50.78H35.8671V49.52H29.8911Z" fill="white"/>
</svg>
