<svg width="375" height="168" viewBox="0 0 375 168" fill="none" xmlns="http://www.w3.org/2000/svg">
<rect width="375" height="168" fill="#5D5FEE"/>
<circle cx="164" cy="153" r="3" fill="white"/>
<circle opacity="0.2" cx="176" cy="153" r="3" fill="white"/>
<circle opacity="0.2" cx="188" cy="153" r="3" fill="white"/>
<circle opacity="0.2" cx="200" cy="153" r="3" fill="white"/>
<circle opacity="0.2" cx="212" cy="153" r="3" fill="white"/>
<g filter="url(#filter0_d_1006_5205)">
<path fill-rule="evenodd" clip-rule="evenodd" d="M214.065 58.0956C213.477 53.6855 216.575 49.6334 220.985 49.0451L340.764 33.0656C345.174 32.4772 349.226 35.5754 349.814 39.9855L352.133 57.368C347.699 59.2864 344.887 63.9739 345.558 68.9996C346.228 74.0253 350.17 77.8119 354.952 78.5007L357.271 95.882C357.859 100.292 354.761 104.344 350.351 104.933L230.573 120.912C226.163 121.5 222.111 118.402 221.523 113.992L219.204 96.6101C223.638 94.6918 226.45 90.0042 225.779 84.9784C225.109 79.9527 221.167 76.1661 216.384 75.4774L214.065 58.0956Z" fill="white"/>
<path d="M214.065 58.0958C213.477 53.6857 216.575 49.6336 220.985 49.0453L340.763 33.0658C345.174 32.4775 349.226 35.5756 349.814 39.9857L350.08 41.9821L214.332 60.0921L214.065 58.0958Z" fill="#FF7676"/>
<path d="M251.301 91.508L248.323 69.1857L263.102 67.214L263.622 71.1051L253.561 72.4473L254.271 77.7662L263.35 76.555L263.869 80.4461L254.79 81.6574L256.02 90.8784L251.301 91.508ZM269.255 89.1128L266.277 66.7905L275.084 65.6156C276.77 65.3907 278.249 65.5003 279.521 65.9444C280.799 66.3803 281.824 67.1052 282.595 68.119C283.373 69.1246 283.86 70.365 284.057 71.8401C284.255 73.3224 284.105 74.6403 283.608 75.7938C283.11 76.94 282.292 77.8774 281.154 78.6061C280.024 79.3338 278.601 79.812 276.886 80.0408L270.99 80.8274L270.484 77.0344L275.617 76.3495C276.518 76.2293 277.25 76.0059 277.813 75.6794C278.376 75.3528 278.77 74.9231 278.995 74.3902C279.227 73.8564 279.294 73.2225 279.196 72.4886C279.097 71.7474 278.864 71.1424 278.499 70.6735C278.14 70.2036 277.642 69.8781 277.004 69.697C276.372 69.5076 275.602 69.4735 274.694 69.5947L271.511 70.0193L273.974 88.4832L269.255 89.1128ZM279.955 77.3462L286.858 86.7644L281.648 87.4595L274.865 78.0252L279.955 77.3462ZM289.397 86.4256L286.419 64.1033L301.461 62.0966L301.98 65.9878L291.658 67.3648L292.368 72.6838L301.916 71.41L302.435 75.3012L292.887 76.5749L293.598 81.9048L303.963 80.522L304.482 84.4131L289.397 86.4256ZM308.191 83.9184L305.213 61.5961L320.254 59.5894L320.773 63.4806L310.452 64.8576L311.161 70.1766L320.709 68.9028L321.228 72.7939L311.68 74.0677L312.391 79.3976L322.757 78.0148L323.276 81.9059L308.191 83.9184Z" fill="#FF7676"/>
<path d="M271.514 99.126L270.634 99.2432C270.549 98.9973 270.428 98.7873 270.273 98.6133C270.12 98.4389 269.942 98.299 269.74 98.1936C269.541 98.0856 269.326 98.0133 269.095 97.9767C268.864 97.9402 268.628 97.938 268.387 97.9702C267.947 98.0288 267.564 98.193 267.237 98.4627C266.912 98.7321 266.673 99.0971 266.52 99.5576C266.37 100.018 266.337 100.562 266.421 101.191C266.505 101.819 266.679 102.336 266.945 102.741C267.213 103.145 267.539 103.435 267.923 103.609C268.31 103.784 268.723 103.842 269.162 103.783C269.403 103.751 269.63 103.687 269.844 103.591C270.057 103.496 270.246 103.371 270.411 103.216C270.577 103.059 270.712 102.877 270.814 102.668C270.918 102.457 270.979 102.223 270.998 101.965L271.877 101.848C271.86 102.228 271.784 102.576 271.648 102.892C271.512 103.209 271.328 103.487 271.096 103.727C270.863 103.965 270.592 104.159 270.282 104.309C269.975 104.458 269.638 104.557 269.272 104.606C268.653 104.688 268.082 104.61 267.56 104.372C267.037 104.134 266.6 103.755 266.25 103.234C265.899 102.713 265.672 102.07 265.57 101.304C265.468 100.539 265.518 99.8585 265.72 99.2639C265.922 98.6694 266.244 98.1887 266.686 97.8219C267.127 97.4551 267.658 97.2304 268.277 97.1478C268.643 97.099 268.994 97.1063 269.33 97.1697C269.668 97.2329 269.98 97.3499 270.268 97.5208C270.555 97.6894 270.805 97.9085 271.019 98.1782C271.233 98.4455 271.398 98.7614 271.514 99.126ZM280.239 99.3473C280.341 100.113 280.291 100.793 280.089 101.388C279.887 101.982 279.565 102.463 279.123 102.83C278.681 103.196 278.151 103.421 277.532 103.504C276.913 103.586 276.342 103.508 275.82 103.27C275.297 103.032 274.861 102.653 274.51 102.132C274.159 101.611 273.932 100.968 273.83 100.202C273.728 99.4366 273.778 98.7565 273.98 98.1619C274.182 97.5674 274.504 97.0867 274.946 96.7199C275.387 96.3531 275.918 96.1285 276.537 96.0459C277.156 95.9633 277.727 96.041 278.249 96.2792C278.772 96.5174 279.208 96.8968 279.559 97.4176C279.91 97.9384 280.137 98.5816 280.239 99.3473ZM279.388 99.4608C279.304 98.8322 279.128 98.3157 278.86 97.9113C278.595 97.5066 278.269 97.217 277.882 97.0425C277.498 96.8677 277.086 96.8096 276.647 96.8682C276.207 96.9268 275.824 97.091 275.497 97.3608C275.172 97.6302 274.933 97.9951 274.78 98.4556C274.63 98.9158 274.597 99.4602 274.681 100.089C274.765 100.717 274.939 101.234 275.205 101.639C275.473 102.043 275.799 102.333 276.183 102.507C276.57 102.682 276.983 102.74 277.422 102.681C277.862 102.623 278.244 102.459 278.569 102.189C278.896 101.919 279.135 101.555 279.285 101.094C279.438 100.634 279.472 100.089 279.388 99.4608ZM286.995 94.7517L287.874 94.6345L288.515 99.4409C288.581 99.9371 288.523 100.396 288.341 100.817C288.162 101.235 287.875 101.585 287.482 101.866C287.089 102.145 286.607 102.322 286.038 102.398C285.468 102.474 284.957 102.429 284.505 102.263C284.052 102.095 283.682 101.833 283.397 101.477C283.113 101.118 282.938 100.69 282.872 100.194L282.231 95.3873L283.11 95.27L283.742 100.006C283.789 100.36 283.909 100.665 284.102 100.921C284.294 101.174 284.545 101.361 284.855 101.481C285.166 101.598 285.524 101.629 285.928 101.575C286.332 101.522 286.669 101.397 286.939 101.202C287.208 101.005 287.402 100.759 287.519 100.465C287.638 100.168 287.674 99.8417 287.626 99.4873L286.995 94.7517ZM291.596 101.526L290.627 94.2671L293.08 93.9399C293.65 93.8639 294.129 93.9046 294.518 94.0619C294.909 94.2166 295.215 94.456 295.436 94.78C295.657 95.104 295.797 95.4799 295.854 95.9076C295.911 96.3353 295.875 96.7357 295.747 97.1088C295.621 97.4815 295.391 97.796 295.057 98.0522C294.723 98.306 294.274 98.4706 293.709 98.5459L291.951 98.7805L291.847 98.0007L293.577 97.7699C293.967 97.7179 294.271 97.6088 294.489 97.4425C294.707 97.2763 294.854 97.0715 294.93 96.8281C295.008 96.582 295.028 96.3137 294.989 96.023C294.95 95.7324 294.861 95.4797 294.722 95.265C294.585 95.0499 294.388 94.8934 294.132 94.7952C293.876 94.6947 293.551 94.6708 293.156 94.7235L291.61 94.9296L292.475 101.409L291.596 101.526ZM304.571 96.1012C304.673 96.8668 304.623 97.5469 304.421 98.1415C304.219 98.736 303.897 99.2167 303.455 99.5835C303.013 99.9503 302.483 100.175 301.864 100.258C301.245 100.34 300.674 100.262 300.152 100.024C299.629 99.7861 299.192 99.4066 298.842 98.8858C298.491 98.365 298.264 97.7218 298.162 96.9561C298.06 96.1905 298.11 95.5104 298.312 94.9159C298.514 94.3213 298.836 93.8406 299.278 93.4738C299.719 93.1071 300.25 92.8824 300.869 92.7998C301.488 92.7172 302.059 92.795 302.581 93.0331C303.104 93.2713 303.54 93.6508 303.891 94.1715C304.242 94.6923 304.469 95.3356 304.571 96.1012ZM303.72 96.2147C303.636 95.5861 303.46 95.0696 303.192 94.6652C302.927 94.2605 302.601 93.9709 302.214 93.7964C301.83 93.6216 301.418 93.5635 300.979 93.6221C300.539 93.6807 300.156 93.8449 299.829 94.1147C299.504 94.3841 299.265 94.749 299.112 95.2095C298.962 95.6697 298.929 96.2141 299.013 96.8427C299.097 97.4712 299.271 97.9879 299.537 98.3926C299.805 98.7969 300.131 99.0865 300.515 99.2614C300.902 99.4359 301.315 99.4938 301.754 99.4352C302.194 99.3766 302.576 99.2126 302.901 98.9431C303.228 98.6734 303.467 98.3085 303.617 97.8483C303.769 97.3878 303.804 96.8432 303.72 96.2147ZM312.319 91.3732L313.288 98.6325L312.437 98.746L307.721 93.5741L307.65 93.5835L308.41 99.2832L307.531 99.4005L306.563 92.1412L307.413 92.0277L312.146 97.2119L312.216 97.2025L311.454 91.4886L312.319 91.3732Z" fill="black"/>
</g>
<path d="M27.108 107.796V111.936H28.128V107.796H27.108ZM30.84 107.796V111.936H31.86V107.796H30.84ZM24.588 107.256V108.084H34.428V107.256H24.588ZM29.484 101.52C27.228 101.52 25.692 102.432 25.692 103.884C25.692 105.324 27.228 106.248 29.484 106.248C31.752 106.248 33.276 105.324 33.276 103.884C33.276 102.432 31.752 101.52 29.484 101.52ZM29.484 102.324C31.14 102.324 32.256 102.936 32.256 103.884C32.256 104.832 31.14 105.444 29.484 105.444C27.828 105.444 26.7 104.832 26.7 103.884C26.7 102.936 27.828 102.324 29.484 102.324ZM38.5191 101.916C36.9231 101.916 35.7951 103.392 35.7951 105.696C35.7951 108.012 36.9231 109.488 38.5191 109.488C40.1151 109.488 41.2431 108.012 41.2431 105.696C41.2431 103.392 40.1151 101.916 38.5191 101.916ZM38.5191 102.816C39.5631 102.816 40.2951 103.944 40.2951 105.696C40.2951 107.46 39.5631 108.612 38.5191 108.612C37.4631 108.612 36.7431 107.46 36.7431 105.696C36.7431 103.944 37.4631 102.816 38.5191 102.816ZM42.9711 101.088V111.936H43.9791V101.088H42.9711ZM43.7391 105.42V106.26H45.7551V105.42H43.7391ZM56.119 105.03C56.0366 104.771 55.9258 104.54 55.7866 104.335C55.6502 104.128 55.4869 103.952 55.2965 103.807C55.1062 103.659 54.8888 103.547 54.6445 103.47C54.4031 103.393 54.1374 103.355 53.8477 103.355C53.3562 103.355 52.913 103.482 52.5181 103.734C52.1232 103.987 51.8107 104.358 51.5806 104.847C51.3533 105.332 51.2397 105.928 51.2397 106.632C51.2397 107.339 51.3548 107.937 51.5849 108.426C51.815 108.915 52.1303 109.286 52.5309 109.538C52.9315 109.791 53.3874 109.918 53.8988 109.918C54.3732 109.918 54.7866 109.821 55.1388 109.628C55.494 109.435 55.7681 109.162 55.9613 108.81C56.1573 108.455 56.2553 108.037 56.2553 107.557L56.5962 107.621H54.0991V106.534H57.5295V107.527C57.5295 108.26 57.3732 108.896 57.0607 109.436C56.7511 109.973 56.3221 110.388 55.7738 110.68C55.2283 110.973 54.6033 111.119 53.8988 111.119C53.109 111.119 52.4158 110.938 51.8192 110.574C51.2255 110.21 50.7624 109.695 50.43 109.027C50.0977 108.357 49.9315 107.561 49.9315 106.641C49.9315 105.945 50.0281 105.32 50.2212 104.766C50.4144 104.212 50.6857 103.741 51.0352 103.355C51.3874 102.966 51.8008 102.669 52.2752 102.464C52.7525 102.257 53.2738 102.153 53.8391 102.153C54.3107 102.153 54.7496 102.223 55.1559 102.362C55.565 102.501 55.9286 102.699 56.2468 102.955C56.5678 103.21 56.8335 103.514 57.0437 103.866C57.2539 104.216 57.396 104.604 57.4698 105.03H56.119ZM61.0036 111.145C60.5888 111.145 60.2138 111.068 59.8786 110.915C59.5433 110.759 59.2777 110.533 59.0817 110.237C58.8885 109.942 58.7919 109.58 58.7919 109.151C58.7919 108.781 58.8629 108.477 59.005 108.239C59.147 108 59.3388 107.811 59.5803 107.672C59.8217 107.533 60.0916 107.428 60.3899 107.357C60.6882 107.286 60.9922 107.232 61.3018 107.195C61.6939 107.149 62.0121 107.112 62.2564 107.084C62.5007 107.053 62.6783 107.003 62.7891 106.935C62.8999 106.866 62.9553 106.756 62.9553 106.602V106.572C62.9553 106.2 62.8501 105.912 62.6399 105.707C62.4325 105.503 62.1229 105.401 61.7109 105.401C61.282 105.401 60.9439 105.496 60.6967 105.686C60.4524 105.874 60.2834 106.082 60.1896 106.312L58.9922 106.04C59.1342 105.642 59.3416 105.321 59.6143 105.077C59.8899 104.83 60.2067 104.651 60.5646 104.54C60.9226 104.426 61.299 104.369 61.6939 104.369C61.9553 104.369 62.2322 104.401 62.5249 104.463C62.8203 104.523 63.0959 104.634 63.3516 104.795C63.6101 104.957 63.8217 105.189 63.9865 105.49C64.1513 105.788 64.2337 106.176 64.2337 106.653V111H62.9893V110.105H62.9382C62.8558 110.27 62.7322 110.432 62.5675 110.591C62.4027 110.75 62.1911 110.882 61.9325 110.987C61.674 111.092 61.3643 111.145 61.0036 111.145ZM61.2805 110.122C61.6328 110.122 61.9339 110.053 62.1839 109.913C62.4368 109.774 62.6286 109.592 62.7592 109.368C62.8928 109.141 62.9595 108.898 62.9595 108.639V107.795C62.9141 107.841 62.826 107.884 62.6953 107.923C62.5675 107.96 62.4212 107.993 62.2564 108.021C62.0916 108.047 61.9311 108.071 61.7749 108.094C61.6186 108.114 61.4879 108.131 61.3828 108.145C61.1357 108.176 60.9098 108.229 60.7053 108.303C60.5036 108.376 60.3416 108.483 60.2195 108.622C60.1001 108.759 60.0405 108.94 60.0405 109.168C60.0405 109.483 60.157 109.722 60.3899 109.884C60.6229 110.043 60.9197 110.122 61.2805 110.122ZM68.9862 104.455V105.477H65.4109V104.455H68.9862ZM66.3697 102.886H67.6438V109.078C67.6438 109.325 67.6808 109.511 67.7546 109.636C67.8285 109.759 67.9237 109.842 68.0401 109.888C68.1594 109.93 68.2887 109.952 68.4279 109.952C68.5302 109.952 68.6197 109.945 68.6964 109.93C68.7731 109.916 68.8327 109.905 68.8754 109.896L69.1055 110.949C69.0316 110.977 68.9265 111.006 68.7901 111.034C68.6538 111.065 68.4833 111.082 68.2788 111.085C67.9435 111.091 67.631 111.031 67.3413 110.906C67.0515 110.781 66.8171 110.588 66.6381 110.327C66.4592 110.065 66.3697 109.737 66.3697 109.342V102.886ZM73.1463 111.132C72.5014 111.132 71.946 110.994 71.4801 110.719C71.017 110.44 70.6591 110.05 70.4062 109.547C70.1562 109.041 70.0312 108.449 70.0312 107.77C70.0312 107.099 70.1562 106.509 70.4062 105.997C70.6591 105.486 71.0114 105.087 71.4631 104.8C71.9176 104.513 72.4489 104.369 73.0568 104.369C73.4261 104.369 73.7841 104.43 74.1307 104.553C74.4773 104.675 74.7884 104.866 75.0639 105.128C75.3395 105.389 75.5568 105.729 75.7159 106.146C75.875 106.561 75.9545 107.065 75.9545 107.659V108.111H70.7514V107.156H74.706C74.706 106.821 74.6378 106.524 74.5014 106.266C74.3651 106.004 74.1733 105.798 73.9261 105.648C73.6818 105.497 73.3949 105.422 73.0653 105.422C72.7074 105.422 72.3949 105.51 72.1278 105.686C71.8636 105.859 71.6591 106.087 71.5142 106.368C71.3722 106.646 71.3011 106.949 71.3011 107.276V108.021C71.3011 108.459 71.3778 108.831 71.5312 109.138C71.6875 109.445 71.9048 109.679 72.1832 109.841C72.4616 110 72.7869 110.08 73.1591 110.08C73.4006 110.08 73.6207 110.045 73.8196 109.977C74.0185 109.906 74.1903 109.801 74.3352 109.662C74.4801 109.523 74.5909 109.351 74.6676 109.146L75.8736 109.364C75.777 109.719 75.6037 110.03 75.3537 110.297C75.1065 110.561 74.7955 110.767 74.4205 110.915C74.0483 111.06 73.6236 111.132 73.1463 111.132ZM86.5526 105.03C86.4702 104.771 86.3594 104.54 86.2202 104.335C86.0838 104.128 85.9205 103.952 85.7301 103.807C85.5398 103.659 85.3224 103.547 85.0781 103.47C84.8366 103.393 84.571 103.355 84.2812 103.355C83.7898 103.355 83.3466 103.482 82.9517 103.734C82.5568 103.987 82.2443 104.358 82.0142 104.847C81.7869 105.332 81.6733 105.928 81.6733 106.632C81.6733 107.339 81.7884 107.937 82.0185 108.426C82.2486 108.915 82.5639 109.286 82.9645 109.538C83.3651 109.791 83.821 109.918 84.3324 109.918C84.8068 109.918 85.2202 109.821 85.5724 109.628C85.9276 109.435 86.2017 109.162 86.3949 108.81C86.5909 108.455 86.6889 108.037 86.6889 107.557L87.0298 107.621H84.5327V106.534H87.9631V107.527C87.9631 108.26 87.8068 108.896 87.4943 109.436C87.1847 109.973 86.7557 110.388 86.2074 110.68C85.6619 110.973 85.0369 111.119 84.3324 111.119C83.5426 111.119 82.8494 110.938 82.2528 110.574C81.6591 110.21 81.196 109.695 80.8636 109.027C80.5313 108.357 80.3651 107.561 80.3651 106.641C80.3651 105.945 80.4616 105.32 80.6548 104.766C80.848 104.212 81.1193 103.741 81.4688 103.355C81.821 102.966 82.2344 102.669 82.7088 102.464C83.1861 102.257 83.7074 102.153 84.2727 102.153C84.7443 102.153 85.1832 102.223 85.5895 102.362C85.9986 102.501 86.3622 102.699 86.6804 102.955C87.0014 103.21 87.267 103.514 87.4773 103.866C87.6875 104.216 87.8295 104.604 87.9034 105.03H86.5526ZM90.3718 111.081C90.1388 111.081 89.9386 110.999 89.771 110.834C89.6033 110.666 89.5195 110.464 89.5195 110.229C89.5195 109.996 89.6033 109.797 89.771 109.632C89.9386 109.464 90.1388 109.381 90.3718 109.381C90.6048 109.381 90.805 109.464 90.9727 109.632C91.1403 109.797 91.2241 109.996 91.2241 110.229C91.2241 110.385 91.1843 110.528 91.1048 110.659C91.0281 110.787 90.9258 110.889 90.7979 110.966C90.6701 111.043 90.5281 111.081 90.3718 111.081ZM98.9393 105.03C98.8569 104.771 98.7461 104.54 98.6069 104.335C98.4705 104.128 98.3072 103.952 98.1168 103.807C97.9265 103.659 97.7092 103.547 97.4648 103.47C97.2234 103.393 96.9577 103.355 96.668 103.355C96.1765 103.355 95.7333 103.482 95.3384 103.734C94.9435 103.987 94.631 104.358 94.4009 104.847C94.1737 105.332 94.06 105.928 94.06 106.632C94.06 107.339 94.1751 107.937 94.4052 108.426C94.6353 108.915 94.9506 109.286 95.3512 109.538C95.7518 109.791 96.2077 109.918 96.7191 109.918C97.1935 109.918 97.6069 109.821 97.9592 109.628C98.3143 109.435 98.5884 109.162 98.7816 108.81C98.9776 108.455 99.0756 108.037 99.0756 107.557L99.4165 107.621H96.9194V106.534H100.35V107.527C100.35 108.26 100.194 108.896 99.881 109.436C99.5714 109.973 99.1424 110.388 98.5941 110.68C98.0487 110.973 97.4237 111.119 96.7191 111.119C95.9293 111.119 95.2362 110.938 94.6396 110.574C94.0458 110.21 93.5827 109.695 93.2504 109.027C92.918 108.357 92.7518 107.561 92.7518 106.641C92.7518 105.945 92.8484 105.32 93.0415 104.766C93.2347 104.212 93.506 103.741 93.8555 103.355C94.2077 102.966 94.6211 102.669 95.0955 102.464C95.5728 102.257 96.0941 102.153 96.6594 102.153C97.131 102.153 97.57 102.223 97.9762 102.362C98.3853 102.501 98.7489 102.699 99.0671 102.955C99.3881 103.21 99.6538 103.514 99.864 103.866C100.074 104.216 100.216 104.604 100.29 105.03H98.9393ZM103.824 111.145C103.409 111.145 103.034 111.068 102.699 110.915C102.364 110.759 102.098 110.533 101.902 110.237C101.709 109.942 101.612 109.58 101.612 109.151C101.612 108.781 101.683 108.477 101.825 108.239C101.967 108 102.159 107.811 102.401 107.672C102.642 107.533 102.912 107.428 103.21 107.357C103.509 107.286 103.813 107.232 104.122 107.195C104.514 107.149 104.832 107.112 105.077 107.084C105.321 107.053 105.499 107.003 105.609 106.935C105.72 106.866 105.776 106.756 105.776 106.602V106.572C105.776 106.2 105.67 105.912 105.46 105.707C105.253 105.503 104.943 105.401 104.531 105.401C104.102 105.401 103.764 105.496 103.517 105.686C103.273 105.874 103.104 106.082 103.01 106.312L101.812 106.04C101.955 105.642 102.162 105.321 102.435 105.077C102.71 104.83 103.027 104.651 103.385 104.54C103.743 104.426 104.119 104.369 104.514 104.369C104.776 104.369 105.053 104.401 105.345 104.463C105.641 104.523 105.916 104.634 106.172 104.795C106.43 104.957 106.642 105.189 106.807 105.49C106.972 105.788 107.054 106.176 107.054 106.653V111H105.81V110.105H105.759C105.676 110.27 105.553 110.432 105.388 110.591C105.223 110.75 105.011 110.882 104.753 110.987C104.494 111.092 104.185 111.145 103.824 111.145ZM104.101 110.122C104.453 110.122 104.754 110.053 105.004 109.913C105.257 109.774 105.449 109.592 105.58 109.368C105.713 109.141 105.78 108.898 105.78 108.639V107.795C105.734 107.841 105.646 107.884 105.516 107.923C105.388 107.96 105.241 107.993 105.077 108.021C104.912 108.047 104.751 108.071 104.595 108.094C104.439 108.114 104.308 108.131 104.203 108.145C103.956 108.176 103.73 108.229 103.526 108.303C103.324 108.376 103.162 108.483 103.04 108.622C102.92 108.759 102.861 108.94 102.861 109.168C102.861 109.483 102.977 109.722 103.21 109.884C103.443 110.043 103.74 110.122 104.101 110.122ZM111.806 104.455V105.477H108.231V104.455H111.806ZM109.19 102.886H110.464V109.078C110.464 109.325 110.501 109.511 110.575 109.636C110.649 109.759 110.744 109.842 110.86 109.888C110.98 109.93 111.109 109.952 111.248 109.952C111.35 109.952 111.44 109.945 111.517 109.93C111.593 109.916 111.653 109.905 111.696 109.896L111.926 110.949C111.852 110.977 111.747 111.006 111.61 111.034C111.474 111.065 111.304 111.082 111.099 111.085C110.764 111.091 110.451 111.031 110.162 110.906C109.872 110.781 109.637 110.588 109.458 110.327C109.279 110.065 109.19 109.737 109.19 109.342V102.886ZM115.967 111.132C115.322 111.132 114.766 110.994 114.3 110.719C113.837 110.44 113.479 110.05 113.227 109.547C112.977 109.041 112.852 108.449 112.852 107.77C112.852 107.099 112.977 106.509 113.227 105.997C113.479 105.486 113.832 105.087 114.283 104.8C114.738 104.513 115.269 104.369 115.877 104.369C116.246 104.369 116.604 104.43 116.951 104.553C117.298 104.675 117.609 104.866 117.884 105.128C118.16 105.389 118.377 105.729 118.536 106.146C118.695 106.561 118.775 107.065 118.775 107.659V108.111H113.572V107.156H117.526C117.526 106.821 117.458 106.524 117.322 106.266C117.185 106.004 116.994 105.798 116.746 105.648C116.502 105.497 116.215 105.422 115.886 105.422C115.528 105.422 115.215 105.51 114.948 105.686C114.684 105.859 114.479 106.087 114.335 106.368C114.192 106.646 114.121 106.949 114.121 107.276V108.021C114.121 108.459 114.198 108.831 114.352 109.138C114.508 109.445 114.725 109.679 115.004 109.841C115.282 110 115.607 110.08 115.979 110.08C116.221 110.08 116.441 110.045 116.64 109.977C116.839 109.906 117.011 109.801 117.156 109.662C117.3 109.523 117.411 109.351 117.488 109.146L118.694 109.364C118.597 109.719 118.424 110.03 118.174 110.297C117.927 110.561 117.616 110.767 117.241 110.915C116.869 111.06 116.444 111.132 115.967 111.132ZM130.992 101.088V106.908H132V101.088H130.992ZM125.004 107.448V111.792H132V107.448H131.016V108.768H125.988V107.448H125.004ZM125.988 109.56H131.016V110.988H125.988V109.56ZM126.18 101.604C124.536 101.604 123.348 102.624 123.348 104.1C123.348 105.588 124.536 106.608 126.18 106.608C127.824 106.608 129 105.588 129 104.1C129 102.624 127.824 101.604 126.18 101.604ZM126.18 102.432C127.26 102.432 128.04 103.116 128.04 104.1C128.04 105.084 127.26 105.768 126.18 105.768C125.1 105.768 124.32 105.084 124.32 104.1C124.32 103.116 125.1 102.432 126.18 102.432ZM137.003 102.024V103.968C137.003 106.02 135.695 108.096 134.087 108.864L134.699 109.68C136.475 108.78 137.819 106.464 137.819 103.968V102.024H137.003ZM137.171 102.024V103.968C137.171 106.38 138.527 108.612 140.291 109.476L140.891 108.684C139.283 107.94 137.987 105.948 137.987 103.968V102.024H137.171ZM142.019 101.076V111.948H143.015V101.076H142.019ZM145.174 106.128V106.884H155.014V106.128H145.174ZM146.338 107.76V108.468H152.806V109.392H146.374V111.348H147.358V110.076H153.778V107.76H146.338ZM146.374 111.084V111.804H154.126V111.084H146.374ZM146.422 101.4V102.108H152.77V102.984H146.446V104.832H147.43V103.656H153.742V101.4H146.422ZM146.446 104.592V105.312H153.946V104.592H146.446ZM162.941 101.592C161.333 101.592 160.181 102.492 160.181 103.824C160.181 105.144 161.333 106.068 162.941 106.068C164.561 106.068 165.713 105.144 165.713 103.824C165.713 102.492 164.561 101.592 162.941 101.592ZM162.941 102.42C163.997 102.42 164.753 102.996 164.753 103.824C164.753 104.664 163.997 105.228 162.941 105.228C161.885 105.228 161.129 104.664 161.129 103.824C161.129 102.996 161.885 102.42 162.941 102.42ZM162.497 107.268V111.6H163.493V107.268H162.497ZM167.297 101.088V111.948H168.281V101.088H167.297ZM159.509 107.808C161.489 107.808 164.153 107.772 166.601 107.328L166.529 106.584C164.141 106.944 161.393 106.968 159.377 106.968L159.509 107.808ZM177.856 101.1V109.236H178.852V101.1H177.856ZM178.54 104.652V105.492H180.46V104.652H178.54ZM170.464 102.408V103.212H176.872V102.408H170.464ZM173.668 103.812C172.12 103.812 171.064 104.616 171.064 105.84C171.064 107.052 172.12 107.856 173.668 107.856C175.204 107.856 176.26 107.052 176.26 105.84C176.26 104.616 175.204 103.812 173.668 103.812ZM173.668 104.592C174.64 104.592 175.312 105.084 175.312 105.84C175.312 106.584 174.64 107.076 173.668 107.076C172.684 107.076 172.012 106.584 172.012 105.84C172.012 105.084 172.684 104.592 173.668 104.592ZM173.164 101.088V102.828H174.16V101.088H173.164ZM172.096 110.88V111.696H179.344V110.88H172.096ZM172.096 108.588V111.228H173.092V108.588H172.096ZM32.496 117.088V127.936H33.492V117.088H32.496ZM29.316 118.252V118.42C29.316 121.3 27.864 123.604 24.732 125.116L25.26 125.92C28.884 124.144 30.3 121.396 30.3 118.252H29.316ZM25.224 118.252V119.068H29.748V118.252H25.224ZM35.6391 125.74V126.568H45.4671V125.74H35.6391ZM40.0431 123.292V126.184H41.0391V123.292H40.0431ZM40.0431 119.356V119.596C40.0431 121.276 38.2911 122.536 36.1671 122.872L36.5511 123.664C38.9031 123.256 40.9191 121.816 40.9191 119.596V119.356H40.0431ZM40.1751 119.356V119.596C40.1751 121.816 42.1791 123.256 44.5311 123.664L44.9151 122.872C42.7911 122.536 41.0391 121.276 41.0391 119.596V119.356H40.1751ZM36.5391 118.792V119.62H44.5311V118.792H36.5391ZM40.0431 117.316V119.092H41.0391V117.316H40.0431ZM51.1139 122.932V123.736H58.5659V122.932H51.1139ZM49.8539 125.716V126.544H59.6819V125.716H49.8539ZM51.1139 118.012V123.184H52.1219V118.828H58.4459V118.012H51.1139ZM51.7979 120.436V121.228H58.2179V120.436H51.7979ZM61.241 124.444V125.272H61.961C63.329 125.272 64.553 125.224 66.077 124.96L65.993 124.144C64.505 124.396 63.281 124.444 61.961 124.444H61.241ZM61.217 118.276V119.092H64.133V121.252H61.241V124.78H62.213V122.056H65.093V118.276H61.217ZM69.137 117.088V127.936H70.097V117.088H69.137ZM65.609 120.976V121.804H67.361V120.976H65.609ZM66.953 117.352V127.372H67.877V117.352H66.953ZM79.804 117.076V127.948H80.8V117.076H79.804ZM75.076 117.916C73.48 117.916 72.328 119.392 72.328 121.696C72.328 124.012 73.48 125.488 75.076 125.488C76.684 125.488 77.836 124.012 77.836 121.696C77.836 119.392 76.684 117.916 75.076 117.916ZM75.076 118.816C76.144 118.816 76.876 119.944 76.876 121.696C76.876 123.46 76.144 124.612 75.076 124.612C74.02 124.612 73.276 123.46 73.276 121.696C73.276 119.944 74.02 118.816 75.076 118.816ZM90.8431 117.088V123.58H91.8391V117.088H90.8431ZM83.6431 117.808V122.284H84.6271V117.808H83.6431ZM83.6431 121.792V122.632H84.5191C86.4751 122.632 88.0591 122.524 89.8231 122.152L89.6911 121.324C87.9991 121.684 86.4271 121.792 84.5191 121.792H83.6431ZM88.2391 123.664C85.9951 123.664 84.6031 124.456 84.6031 125.788C84.6031 127.132 85.9951 127.912 88.2391 127.912C90.4831 127.912 91.8871 127.132 91.8871 125.788C91.8871 124.456 90.4831 123.664 88.2391 123.664ZM88.2391 124.468C89.8831 124.468 90.8911 124.948 90.8911 125.788C90.8911 126.628 89.8831 127.108 88.2391 127.108C86.5951 127.108 85.5991 126.628 85.5991 125.788C85.5991 124.948 86.5951 124.468 88.2391 124.468Z" fill="white"/>
<path d="M28.734 49.562V51.434C28.734 54.26 27.384 57.338 24.594 58.58L25.944 60.47C29.076 59.048 30.642 55.286 30.642 51.434V49.562H28.734ZM29.274 49.562V51.434C29.274 55.142 30.822 58.688 33.99 60.056L35.286 58.166C32.496 57.014 31.164 54.134 31.164 51.434V49.562H29.274ZM25.26 48.536V50.498H34.602V48.536H25.26ZM36.15 46.934V63.602H38.562V46.934H36.15ZM43.1326 47.672V49.58H53.6986V47.672H43.1326ZM41.2966 53.666V55.574H56.3806V53.666H41.2966ZM52.2586 47.672V49.004C52.2586 50.426 52.2586 51.956 51.7366 54.116L54.1126 54.152C54.6166 51.992 54.6166 50.444 54.6166 49.004V47.672H52.2586ZM43.0606 57.32V63.422H54.5446V57.32H43.0606ZM52.1866 59.174V61.532H45.4006V59.174H52.1866ZM61.1634 60.2102L61.093 60.9134C61.0376 61.4759 60.9311 62.0362 60.7734 62.5945C60.62 63.157 60.4581 63.6662 60.2876 64.1222C60.1214 64.5781 59.9872 64.9361 59.8849 65.196H58.1207C58.1847 64.9446 58.272 64.593 58.3828 64.1413C58.4936 63.6939 58.598 63.1911 58.696 62.6328C58.794 62.0746 58.8558 61.5057 58.8814 60.9261L58.9134 60.2102H61.1634ZM78.8252 46.934V63.602H81.1112V46.934H78.8252ZM76.6472 53.36V55.268H79.4192V53.36H76.6472ZM75.0992 47.222V62.81H77.3312V47.222H75.0992ZM67.4852 48.77V58.4H69.8792V48.77H67.4852ZM67.4852 57.5V59.552H68.6372C70.3292 59.552 72.2372 59.462 74.4152 59.066L74.1812 57.014C72.1112 57.41 70.2392 57.5 68.6372 57.5H67.4852ZM95.4738 46.934V63.602H97.7598V46.934H95.4738ZM88.8678 53.324V55.214H92.4318V53.324H88.8678ZM91.9638 47.294V62.864H94.1958V47.294H91.9638ZM88.3278 48.896V49.382C88.3278 53.414 86.9778 56.186 83.1798 58.472L84.5298 60.146C89.2098 57.428 90.6318 53.648 90.6318 48.896H88.3278ZM84.1158 48.896V50.804H89.0838V48.896H84.1158ZM114.776 46.916V63.584H117.188V46.916H114.776ZM116.558 53.288V55.25H119.492V53.288H116.558ZM110.402 48.644V49.058C110.402 53.576 108.332 56.636 103.958 58.904L105.29 60.722C110.834 57.932 112.742 53.648 112.742 48.644H110.402ZM104.876 48.644V50.57H111.626V48.644H104.876ZM124.387 48.788V49.832C124.387 51.956 123.217 54.134 120.445 55.052L121.633 56.942C124.855 55.88 126.349 53.018 126.349 49.832V48.788H124.387ZM124.873 48.788V49.832C124.873 52.802 126.313 55.412 129.481 56.366L130.615 54.494C127.933 53.684 126.817 51.776 126.817 49.832V48.788H124.873ZM121.075 48.05V49.958H130.075V48.05H121.075ZM131.407 46.934V56.816H133.801V46.934H131.407ZM133.135 50.768V52.73H136.015V50.768H133.135ZM128.365 57.122C124.891 57.122 122.713 58.328 122.713 60.362C122.713 62.396 124.891 63.602 128.365 63.602C131.821 63.602 133.999 62.396 133.999 60.362C133.999 58.328 131.821 57.122 128.365 57.122ZM128.365 58.994C130.489 58.994 131.623 59.426 131.623 60.362C131.623 61.298 130.489 61.766 128.365 61.766C126.241 61.766 125.089 61.298 125.089 60.362C125.089 59.426 126.241 58.994 128.365 58.994ZM152.888 46.934V55.466H155.3V46.934H152.888ZM144.014 56.132V57.968H152.924V58.922H144.05V62.648H146.408V60.632H155.3V56.132H144.014ZM144.05 61.64V63.494H155.75V61.64H144.05ZM142.124 47.942V49.778H151.106V47.942H142.124ZM141.926 55.178C144.806 55.16 148.55 55.088 151.844 54.548L151.718 52.838C148.496 53.234 144.608 53.288 141.692 53.288L141.926 55.178ZM143.438 48.77V54.224H145.724V48.77H143.438ZM147.47 48.77V54.224H149.792V48.77H147.47ZM161.292 55.394V60.074H163.668V55.394H161.292ZM167.34 55.394V60.074H169.734V55.394H167.34ZM157.98 59.732V61.676H173.064V59.732H157.98ZM165.504 47.744C161.904 47.744 159.276 49.508 159.276 52.226C159.276 54.944 161.904 56.69 165.504 56.69C169.086 56.69 171.732 54.944 171.732 52.226C171.732 49.508 169.086 47.744 165.504 47.744ZM165.504 49.616C167.826 49.616 169.374 50.57 169.374 52.226C169.374 53.864 167.826 54.836 165.504 54.836C163.182 54.836 161.634 53.864 161.634 52.226C161.634 50.57 163.182 49.616 165.504 49.616ZM185.249 46.952V59.408H187.643V46.952H185.249ZM186.959 52.028V53.99H189.857V52.028H186.959ZM174.521 48.68V50.552H184.331V48.68H174.521ZM179.435 51.146C177.023 51.146 175.331 52.46 175.331 54.368C175.331 56.276 177.023 57.572 179.435 57.572C181.829 57.572 183.521 56.276 183.521 54.368C183.521 52.46 181.829 51.146 179.435 51.146ZM179.435 52.964C180.497 52.964 181.235 53.468 181.235 54.368C181.235 55.268 180.497 55.754 179.435 55.754C178.373 55.754 177.635 55.268 177.635 54.368C177.635 53.468 178.373 52.964 179.435 52.964ZM178.229 46.916V49.598H180.623V46.916H178.229ZM176.897 61.406V63.314H188.237V61.406H176.897ZM176.897 58.472V62.234H179.291V58.472H176.897ZM36.762 70.934V87.602H39.03V70.934H36.762ZM34.53 77.342V79.268H37.302V77.342H34.53ZM33.036 71.222V86.81H35.25V71.222H33.036ZM25.188 81.878V83.84H26.358C28.5 83.84 30.264 83.786 32.28 83.39L32.1 81.446C30.12 81.806 28.41 81.878 26.358 81.878H25.188ZM25.188 72.86V82.814H27.564V74.786H31.344V72.86H25.188ZM52.7266 70.934V87.602H55.1386V70.934H52.7266ZM45.3826 75.254V76.118C45.3826 78.638 44.0866 81.464 41.3506 82.688L42.6286 84.524C45.7066 83.192 47.2726 79.646 47.2726 76.118V75.254H45.3826ZM45.9046 75.254V76.118C45.9046 79.538 47.4886 82.976 50.5666 84.254L51.8446 82.418C49.0906 81.248 47.7766 78.512 47.7766 76.118V75.254H45.9046ZM41.9086 73.652V75.542H51.1786V73.652H41.9086ZM45.3826 71.312V74.624H47.7766V71.312H45.3826ZM57.8552 78.764V80.672H72.9392V78.764H57.8552ZM64.2092 76.262V79.502H66.5852V76.262H64.2092ZM59.6732 75.506V77.396H71.2292V75.506H59.6732ZM59.6732 71.654V76.712H62.0492V73.526H71.1392V71.654H59.6732ZM65.3432 81.5C61.7432 81.5 59.5472 82.598 59.5472 84.56C59.5472 86.522 61.7432 87.62 65.3432 87.62C68.9432 87.62 71.1212 86.522 71.1212 84.56C71.1212 82.598 68.9432 81.5 65.3432 81.5ZM65.3432 83.3C67.5752 83.3 68.7092 83.714 68.7092 84.56C68.7092 85.424 67.5752 85.802 65.3432 85.802C63.1112 85.802 61.9772 85.424 61.9772 84.56C61.9772 83.714 63.1112 83.3 65.3432 83.3ZM87.5978 74.966V76.91H90.7658V74.966H87.5978ZM90.1178 70.934V80.834H92.5118V70.934H90.1178ZM86.8598 81.194C83.3318 81.194 81.1538 82.4 81.1538 84.416C81.1538 86.45 83.3318 87.62 86.8598 87.62C90.3878 87.62 92.5658 86.45 92.5658 84.416C92.5658 82.4 90.3878 81.194 86.8598 81.194ZM86.8598 83.012C89.0378 83.012 90.1898 83.462 90.1898 84.416C90.1898 85.352 89.0378 85.802 86.8598 85.802C84.6998 85.802 83.5478 85.352 83.5478 84.416C83.5478 83.462 84.6998 83.012 86.8598 83.012ZM82.4138 72.608V73.652C82.4138 75.794 81.2258 78.008 78.4718 78.944L79.6958 80.834C82.8818 79.754 84.3578 76.838 84.3578 73.652V72.608H82.4138ZM82.9178 72.608V73.652C82.9178 76.622 84.3398 79.394 87.4358 80.42L88.6058 78.53C85.9778 77.648 84.8438 75.614 84.8438 73.652V72.608H82.9178ZM79.1198 71.942V73.85H88.0838V71.942H79.1198ZM95.1384 83.732V85.676H110.222V83.732H95.1384ZM101.456 80.168V84.2H103.85V80.168H101.456ZM96.7224 71.996V80.672H108.584V71.996H106.208V74.552H99.0984V71.996H96.7224ZM99.0984 76.424H106.208V78.764H99.0984V76.424Z" fill="white"/>
<defs>
<filter id="filter0_d_1006_5205" x="209.966" y="30.9799" width="151.405" height="96.0457" filterUnits="userSpaceOnUse" color-interpolation-filters="sRGB">
<feFlood flood-opacity="0" result="BackgroundImageFix"/>
<feColorMatrix in="SourceAlpha" type="matrix" values="0 0 0 0 0 0 0 0 0 0 0 0 0 0 0 0 0 0 127 0" result="hardAlpha"/>
<feOffset dy="2.01399"/>
<feGaussianBlur stdDeviation="2.01399"/>
<feComposite in2="hardAlpha" operator="out"/>
<feColorMatrix type="matrix" values="0 0 0 0 0 0 0 0 0 0 0 0 0 0 0 0 0 0 0.1 0"/>
<feBlend mode="normal" in2="BackgroundImageFix" result="effect1_dropShadow_1006_5205"/>
<feBlend mode="normal" in="SourceGraphic" in2="effect1_dropShadow_1006_5205" result="shape"/>
</filter>
</defs>
</svg>
